<?xml version="1.0" encoding="UTF-8" standalone="no"?>
<!-- Uploaded to: SVG Repo, www.svgrepo.com, Generator: SVG Repo Mixer Tools -->

<svg
   width="800"
   height="800"
   viewBox="0 0 24 24"
   fill="none"
   version="1.1"
   id="svg2"
   sodipodi:docname="star-ocacity-5.svg"
   inkscape:export-filename="star-ocacity-50.svg"
   inkscape:export-xdpi="96"
   inkscape:export-ydpi="96"
   inkscape:version="1.4 (86a8ad7, 2024-10-11)"
   xmlns:inkscape="http://www.inkscape.org/namespaces/inkscape"
   xmlns:sodipodi="http://sodipodi.sourceforge.net/DTD/sodipodi-0.dtd"
   xmlns="http://www.w3.org/2000/svg"
   xmlns:svg="http://www.w3.org/2000/svg">
  <defs
     id="defs2" />
  <sodipodi:namedview
     id="namedview2"
     pagecolor="#ffffff"
     bordercolor="#000000"
     borderopacity="0.25"
     inkscape:showpageshadow="2"
     inkscape:pageopacity="0.0"
     inkscape:pagecheckerboard="0"
     inkscape:deskcolor="#d1d1d1"
     inkscape:zoom="1.45875"
     inkscape:cx="400"
     inkscape:cy="400"
     inkscape:window-width="2560"
     inkscape:window-height="1369"
     inkscape:window-x="2552"
     inkscape:window-y="-8"
     inkscape:window-maximized="1"
     inkscape:current-layer="svg2">
    <inkscape:page
       x="0"
       y="0"
       width="24"
       height="24"
       id="page2"
       margin="0"
       bleed="0" />
  </sodipodi:namedview>
  <path
     d="m 6.5,13 0.78446,1.5689 c 0.26549,0.531 0.39823,0.7965 0.57557,1.0265 0.15736,0.2042 0.34038,0.3872 0.54452,0.5446 0.23007,0.1773 0.49555,0.3101 1.02653,0.5755 L 11,17.5 9.43108,18.2845 C 8.9001,18.5499 8.63462,18.6827 8.40455,18.86 8.20041,19.0174 8.01739,19.2004 7.86003,19.4046 7.68269,19.6346 7.54995,19.9001 7.28446,20.4311 L 6.5,22 5.71554,20.4311 C 5.45005,19.9001 5.31731,19.6346 5.13997,19.4046 4.98261,19.2004 4.79959,19.0174 4.59545,18.86 4.36538,18.6827 4.0999,18.5499 3.56892,18.2845 L 2,17.5 3.56892,16.7155 C 4.0999,16.4501 4.36538,16.3173 4.59545,16.14 c 0.20414,-0.1574 0.38716,-0.3404 0.54452,-0.5446 0.17734,-0.23 0.31008,-0.4955 0.57557,-1.0265 z"
     stroke="#000000"
     stroke-width="2"
     stroke-linecap="round"
     stroke-linejoin="round"
     id="path1"
     style="stroke:#000000;stroke-opacity:0.0281124;opacity:0.5974359" />
  <path
     d="m 15,2 1.1786,3.06442 c 0.282,0.73323 0.423,1.09984 0.6423,1.40822 0.1944,0.27331 0.4331,0.51211 0.7065,0.70645 0.3083,0.21927 0.675,0.36028 1.4082,0.64229 L 22,9 18.9356,10.1786 c -0.7332,0.282 -1.0999,0.423 -1.4082,0.6423 -0.2734,0.1944 -0.5121,0.4331 -0.7065,0.7065 -0.2193,0.3083 -0.3603,0.675 -0.6423,1.4082 L 15,16 13.8214,12.9356 c -0.282,-0.7332 -0.423,-1.0999 -0.6423,-1.4082 -0.1944,-0.2734 -0.4331,-0.5121 -0.7065,-0.7065 -0.3083,-0.2193 -0.675,-0.3603 -1.4082,-0.6423 L 8,9 11.0644,7.82138 C 11.7976,7.53937 12.1643,7.39836 12.4726,7.17909 12.746,6.98475 12.9847,6.74595 13.1791,6.47264 13.3984,6.16426 13.5394,5.79765 13.8214,5.06442 Z"
     stroke="#000000"
     stroke-width="2"
     stroke-linecap="round"
     stroke-linejoin="round"
     id="path2"
     style="stroke:#000000;stroke-opacity:0.0522088;opacity:0.48205128" />
</svg>
